<svg xmlns="http://www.w3.org/2000/svg" viewBox="0 0 200 200">
  <defs>
    <linearGradient id="bg" x1="0%" y1="0%" x2="100%" y2="100%">
      <stop offset="0%" stop-color="#16a34a"/>
      <stop offset="100%" stop-color="#059669"/>
    </linearGradient>
    <clipPath id="c"><circle cx="100" cy="100" r="100"/></clipPath>
  </defs>
  <g clip-path="url(#c)">
    <rect width="200" height="200" fill="url(#bg)"/>
    <rect x="38" y="155" width="124" height="60" fill="rgba(255,255,255,0.14)" rx="10"/>
    <rect x="88" y="118" width="24" height="22" fill="#fde68a"/>
    <ellipse cx="100" cy="120" rx="46" ry="60" fill="#7c1d1d"/>
    <ellipse cx="100" cy="96" rx="38" ry="42" fill="#fde68a"/>
    <ellipse cx="100" cy="58" rx="40" ry="22" fill="#7c1d1d"/>
    <rect x="60" y="58" width="18" height="88" rx="9" fill="#7c1d1d"/>
    <rect x="122" y="58" width="18" height="88" rx="9" fill="#7c1d1d"/>
    <ellipse cx="62" cy="96" rx="7" ry="9" fill="#e8d070"/>
    <ellipse cx="138" cy="96" rx="7" ry="9" fill="#e8d070"/>
    <ellipse cx="85" cy="92" rx="7" ry="8" fill="white"/>
    <ellipse cx="115" cy="92" rx="7" ry="8" fill="white"/>
    <circle cx="87" cy="93" r="4" fill="#052e16"/>
    <circle cx="117" cy="93" r="4" fill="#052e16"/>
    <circle cx="88" cy="91" r="1.5" fill="white"/>
    <circle cx="118" cy="91" r="1.5" fill="white"/>
    <path d="M78 85 Q85 80 92 85" stroke="#4a1010" stroke-width="2.5" fill="none" stroke-linecap="round"/>
    <path d="M108 85 Q115 80 122 85" stroke="#4a1010" stroke-width="2.5" fill="none" stroke-linecap="round"/>
    <path d="M97 103 Q100 110 103 103" stroke="#c8b040" stroke-width="1.5" fill="none" stroke-linecap="round"/>
    <path d="M87 115 Q100 123 113 115" stroke="#16a34a" stroke-width="2" fill="none" stroke-linecap="round"/>
    <path d="M65 148 L88 132 L100 140 L112 132 L135 148 Z" fill="#16a34a"/>
  </g>
</svg>
