<svg xmlns="http://www.w3.org/2000/svg" viewBox="0 0 200 200">
  <defs>
    <linearGradient id="bg" x1="0%" y1="0%" x2="100%" y2="100%">
      <stop offset="0%" stop-color="#0d9488"/>
      <stop offset="100%" stop-color="#0891b2"/>
    </linearGradient>
    <clipPath id="c"><circle cx="100" cy="100" r="100"/></clipPath>
  </defs>
  <g clip-path="url(#c)">
    <rect width="200" height="200" fill="url(#bg)"/>
    <rect x="38" y="155" width="124" height="60" fill="rgba(255,255,255,0.14)" rx="10"/>
    <rect x="88" y="118" width="24" height="22" fill="#deb887"/>
    <ellipse cx="100" cy="96" rx="38" ry="42" fill="#deb887"/>
    <ellipse cx="100" cy="60" rx="38" ry="18" fill="#1c0a00"/>
    <rect x="62" y="60" width="76" height="14" fill="#1c0a00"/>
    <ellipse cx="62" cy="96" rx="7" ry="9" fill="#c8a07a"/>
    <ellipse cx="138" cy="96" rx="7" ry="9" fill="#c8a07a"/>
    <ellipse cx="85" cy="92" rx="7" ry="8" fill="white"/>
    <ellipse cx="115" cy="92" rx="7" ry="8" fill="white"/>
    <circle cx="87" cy="93" r="4" fill="#134e4a"/>
    <circle cx="117" cy="93" r="4" fill="#134e4a"/>
    <circle cx="88" cy="91" r="1.5" fill="white"/>
    <circle cx="118" cy="91" r="1.5" fill="white"/>
    <path d="M78 83 Q85 79 92 83" stroke="#1c0a00" stroke-width="2.5" fill="none" stroke-linecap="round"/>
    <path d="M108 83 Q115 79 122 83" stroke="#1c0a00" stroke-width="2.5" fill="none" stroke-linecap="round"/>
    <path d="M97 103 Q100 110 103 103" stroke="#c08060" stroke-width="1.5" fill="none" stroke-linecap="round"/>
    <path d="M86 115 Q100 125 114 115" stroke="#c07050" stroke-width="2.5" fill="none" stroke-linecap="round"/>
    <path d="M68 148 L88 132 L100 140 L112 132 L132 148 Z" fill="#0d9488"/>
  </g>
</svg>
