<svg xmlns="http://www.w3.org/2000/svg" width="1440" height="900" viewBox="0 0 1440 900">
  <defs>
    <style>path{fill:none;stroke:#c7d2fe;stroke-width:1;opacity:.45}</style>
  </defs>
  <!-- Topographic contour lines — centered right, spreading left -->
  <path d="M1420,450 Q1380,300 1280,200 Q1160,90 1020,80 Q880,70 780,160 Q680,250 660,380 Q640,510 720,620 Q800,730 940,770 Q1080,810 1200,750 Q1340,690 1400,580 Q1450,510 1420,450Z"/>
  <path d="M1440,450 Q1400,270 1280,150 Q1140,20 960,10 Q780,0 640,120 Q500,240 480,400 Q460,560 560,680 Q660,800 840,840 Q1020,880 1180,810 Q1360,740 1420,590 Q1470,510 1440,450Z"/>
  <path d="M1380,450 Q1340,330 1240,240 Q1120,140 980,140 Q840,140 740,230 Q640,320 630,440 Q620,560 700,650 Q780,740 920,770 Q1060,800 1180,730 Q1320,660 1370,550 Q1410,500 1380,450Z"/>
  <path d="M1340,450 Q1300,360 1200,285 Q1080,200 950,205 Q820,210 730,295 Q640,385 640,490 Q640,590 720,665 Q800,740 930,760 Q1060,780 1170,710 Q1290,640 1330,540 Q1365,495 1340,450Z"/>
  <path d="M1300,450 Q1265,375 1170,315 Q1060,248 940,258 Q820,268 740,350 Q660,432 665,530 Q670,625 750,690 Q830,755 955,768 Q1075,780 1170,715 Q1270,650 1295,550 Q1315,500 1300,450Z"/>
  <path d="M1260,450 Q1225,385 1135,335 Q1025,276 915,292 Q810,308 740,390 Q672,472 680,565 Q688,658 764,715 Q840,772 960,778 Q1075,784 1160,722 Q1248,660 1262,565 Q1272,508 1260,450Z"/>
  <path d="M1220,452 Q1190,395 1110,355 Q1005,306 905,325 Q808,344 748,420 Q690,496 700,580 Q710,662 780,710 Q850,758 960,758 Q1065,758 1145,700 Q1225,642 1228,565 Q1232,510 1220,452Z"/>
  <path d="M1180,455 Q1152,408 1084,376 Q990,336 898,358 Q806,380 755,450 Q706,520 720,595 Q734,668 798,708 Q862,748 960,744 Q1054,740 1128,688 Q1196,638 1192,568 Q1190,514 1180,455Z"/>
  <path d="M1140,460 Q1115,422 1058,398 Q972,366 888,390 Q806,414 762,478 Q720,542 738,610 Q756,675 814,706 Q872,738 960,730 Q1044,722 1110,674 Q1168,632 1156,568 Q1148,518 1140,460Z"/>
  <path d="M1100,465 Q1078,435 1032,420 Q956,396 878,422 Q804,448 768,506 Q734,564 756,624 Q778,682 830,704 Q882,726 960,716 Q1033,706 1090,662 Q1140,626 1120,568 Q1108,522 1100,465Z"/>
  <path d="M1060,472 Q1040,446 1006,440 Q942,426 870,452 Q800,478 774,530 Q750,582 774,636 Q798,688 848,703 Q898,718 960,706 Q1020,694 1066,654 Q1108,620 1086,568 Q1072,526 1060,472Z"/>
  <!-- Extra outer rings for depth -->
  <path d="M1440,350 Q1420,180 1280,80 Q1120,-30 920,-20 Q720,-10 580,120 Q440,250 420,440 Q400,630 520,770 Q640,910 840,940 Q1040,970 1200,870 Q1380,770 1430,620 Q1465,530 1440,350Z" opacity=".25"/>
  <path d="M1440,250 Q1400,60 1220,-60 Q1020,-180 780,-140 Q540,-100 380,80 Q220,260 220,460 Q220,660 380,820 Q540,980 760,1000 Q980,1020 1160,900 Q1360,780 1420,620 Q1470,530 1440,250Z" opacity=".15"/>
  <!-- Left side accent rings -->
  <path d="M200,200 Q100,350 120,500 Q140,650 280,720 Q420,790 520,680 Q620,570 580,440 Q540,310 420,260 Q300,210 200,200Z" opacity=".2"/>
  <path d="M160,180 Q40,350 60,530 Q80,710 260,800 Q440,890 580,760 Q720,630 670,460 Q620,290 460,230 Q300,170 160,180Z" opacity=".12"/>
  <path d="M100,140 Q-40,340 -20,550 Q0,760 220,870 Q440,980 630,840 Q820,700 760,500 Q700,300 500,230 Q300,160 100,140Z" opacity=".08"/>
  <!-- Bottom left -->
  <path d="M0,700 Q80,800 200,820 Q350,840 440,740 Q530,640 480,540 Q430,440 300,430 Q170,420 80,520 Q0,600 0,700Z" opacity=".18"/>
</svg>
